<svg width="22" height="21" viewBox="0 0 22 21" fill="none" xmlns="http://www.w3.org/2000/svg">
<path d="M22 7.875C21.8813 8.51034 21.6168 9.11273 21.2254 9.639L13.1743 19.9815C12.9191 20.2963 12.5922 20.5515 12.2184 20.7279C11.8445 20.9043 11.4336 20.9973 11.0166 20.9997C10.5995 21.0022 10.1874 20.914 9.81135 20.742C9.43528 20.57 9.10511 20.3186 8.84583 20.0069L0.755333 9.45C0.411657 8.97465 0.169045 8.43954 0.04125 7.875H5.78692L10.1438 18.6891C10.2101 18.8546 10.3275 18.9969 10.4804 19.0973C10.6332 19.1977 10.8144 19.2515 11 19.2515C11.1856 19.2515 11.3668 19.1977 11.5196 19.0973C11.6725 18.9969 11.7899 18.8546 11.8562 18.6891L16.2131 7.875H22ZM16.225 6.125H21.9606C21.8211 5.53299 21.5536 4.97534 21.175 4.48788L18.8302 1.46563C18.4906 1.0126 18.0428 0.643345 17.5239 0.388464C17.005 0.133583 16.43 0.000417057 15.8464 1.69188e-06H13.8298L16.225 6.125ZM10.1823 1.69188e-06L7.74492 6.125H14.2643L11.8754 1.69188e-06H10.1823ZM5.78417 6.125L8.22067 1.69188e-06H6.09217C5.51355 -0.000542003 4.94305 0.129961 4.42755 0.38079C3.91204 0.631619 3.46623 0.995616 3.12675 1.44288L0.859833 4.27963C0.426071 4.82215 0.131583 5.45419 0 6.125H5.78417ZM14.2487 7.875H7.75133L11 15.9373L14.2487 7.875Z" fill="#D9D9D9"/>
</svg>
