<svg width="50" height="50" viewBox="0 0 50 50" fill="none" xmlns="http://www.w3.org/2000/svg">
<path d="M25 0C38.8071 0 50 11.1929 50 25C50 38.8071 38.8071 50 25 50C11.1929 50 0 38.8071 0 25C0 11.1929 11.1929 0 25 0ZM22.4307 16.377C21.8745 15.8749 20.9732 15.8748 20.417 16.377C19.8612 16.879 19.8612 17.6923 20.417 18.1943L27.9551 25L20.417 31.8057C19.8612 32.3077 19.8612 33.121 20.417 33.623C20.9732 34.1252 21.8745 34.1251 22.4307 33.623L30.3047 26.5146C31.2314 25.6778 31.2314 24.3222 30.3047 23.4854L22.4307 16.377Z" fill="white"/>
</svg>
