<svg width="28" height="28" viewBox="0 0 28 28" fill="none" xmlns="http://www.w3.org/2000/svg">
<g clip-path="url(#clip0_2033_791)">
<path d="M21.8321 14H16.3336C15.045 14 14.0003 12.9553 14.0003 11.6667V6.15303C14.0035 5.0653 13.5008 4.03783 12.6399 3.37288C11.8242 2.72691 10.7546 2.49668 9.74543 2.74988C2.88598 4.45263 -1.29439 11.3937 0.408418 18.2532C1.6081 23.0861 5.50228 26.7842 10.3906 27.7329C17.0685 29.0111 23.5844 24.8592 25.247 18.2665C25.5011 17.256 25.2713 16.1848 24.6251 15.3674C23.9525 14.5081 22.9234 14.0042 21.8321 14Z" fill="white"/>
<path d="M27.5926 8.6871C27.3263 7.69714 26.9296 6.74695 26.4131 5.86145C24.8594 3.19609 22.3215 1.24719 19.3454 0.434098C19.1494 0.381215 18.7107 0.350098 18.7107 0.350098C18.554 0.350152 17.8789 0.350098 17.3446 0.782949C16.5592 1.40097 16.4357 2.1036 16.4241 2.15845C16.3833 2.3305 16.3622 2.50664 16.3611 2.68345V8.1668C16.3611 10.0998 17.9281 11.6668 19.8611 11.6668H25.3666C26.097 11.6689 26.7845 11.3221 27.217 10.7334C27.5368 10.3022 27.7013 9.77549 27.6836 9.23895C27.6743 9.05214 27.6438 8.86696 27.5926 8.6871Z" fill="white"/>
</g>
<defs>
<clipPath id="clip0_2033_791">
<rect width="28" height="28" fill="white"/>
</clipPath>
</defs>
</svg>
