<svg width="195" height="195" viewBox="0 0 195 195" fill="none" xmlns="http://www.w3.org/2000/svg" xmlns:xlink="http://www.w3.org/1999/xlink">
<use xlink:href="#stroke0_2035_799" transform="translate(194.135 91.3743) scale(0.0461721) rotate(102.176)"/>
<use xlink:href="#stroke0_2035_799" transform="translate(188.02 92.3366) scale(0.0399297) rotate(73.2362)"/>
<use xlink:href="#stroke0_2035_799" transform="translate(185.14 95.5593) scale(0.0345747) rotate(22.0684)"/>
<use xlink:href="#stroke0_2035_799" transform="translate(190.486 107.669) scale(0.0275147) rotate(179.606)"/>
<use xlink:href="#stroke0_2035_799" transform="translate(185.955 104.274) scale(0.0250508) rotate(121.912)"/>
<use xlink:href="#stroke0_2035_799" transform="translate(185.222 102.662) scale(0.0253986) rotate(60.7266)"/>
<use xlink:href="#stroke0_2035_799" transform="translate(183.132 115.829) scale(0.0399316) rotate(-94.7453)"/>
<use xlink:href="#stroke0_2035_799" transform="translate(183.919 112.783) scale(0.0269182) rotate(-45.4694)"/>
<use xlink:href="#stroke0_2035_799" transform="translate(187.098 111.497) scale(0.0318819) rotate(112.617)"/>
<use xlink:href="#stroke0_2035_799" transform="translate(185.925 112.49) scale(0.0266948) rotate(21.1841)"/>
<use xlink:href="#stroke0_2035_799" transform="translate(184.481 122.257) scale(0.0239687) rotate(-154.155)"/>
<use xlink:href="#stroke0_2035_799" transform="translate(179.157 114.497) scale(0.040023) rotate(5.23254)"/>
<use xlink:href="#stroke0_2035_799" transform="translate(173.573 127.605) scale(0.0405981) rotate(-95.1854)"/>
<use xlink:href="#stroke0_2035_799" transform="translate(177.66 116.799) scale(0.0532265) rotate(22.6769)"/>
<use xlink:href="#stroke0_2035_799" transform="translate(180.042 121.542) scale(0.0381755) rotate(64.5555)"/>
<use xlink:href="#stroke0_2035_799" transform="translate(169.968 137.072) scale(0.0441025) rotate(-104.275)"/>
<use xlink:href="#stroke0_2035_799" transform="translate(183.126 131.712) scale(0.0459187) rotate(120.427)"/>
<use xlink:href="#stroke0_2035_799" transform="translate(167.504 134.307) scale(0.0365961) rotate(-28.618)"/>
<use xlink:href="#stroke0_2035_799" transform="translate(181.482 140.593) scale(0.0337565) rotate(138.407)"/>
<use xlink:href="#stroke0_2035_799" transform="translate(168.835 142.631) scale(0.0357922) rotate(-42.3951)"/>
<use xlink:href="#stroke0_2035_799" transform="translate(171.976 138.069) scale(0.0246027) rotate(64.7838)"/>
<use xlink:href="#stroke0_2035_799" transform="translate(169.552 152.443) scale(0.0350236) rotate(-105.834)"/>
<use xlink:href="#stroke0_2035_799" transform="translate(171.264 139.971) scale(0.0423263) rotate(55.5218)"/>
<use xlink:href="#stroke0_2035_799" transform="translate(170.489 155.253) scale(0.0234913) rotate(-147.719)"/>
<use xlink:href="#stroke0_2035_799" transform="translate(159.012 148.985) scale(0.035432) rotate(-35.5309)"/>
<use xlink:href="#stroke0_2035_799" transform="translate(169.437 144.109) scale(0.055491) rotate(89.3823)"/>
<use xlink:href="#stroke0_2035_799" transform="translate(164.633 151.716) scale(0.0367507) rotate(40.1748)"/>
<use xlink:href="#stroke0_2035_799" transform="translate(152.024 153.198) scale(0.0403572) rotate(-20.8049)"/>
<use xlink:href="#stroke0_2035_799" transform="translate(162.108 155.877) scale(0.0279666) rotate(96.6307)"/>
<use xlink:href="#stroke0_2035_799" transform="translate(163.514 162.782) scale(0.0425134) rotate(149.541)"/>
<use xlink:href="#stroke0_2035_799" transform="translate(156.47 154.778) scale(0.0432265) rotate(64.443)"/>
<use xlink:href="#stroke0_2035_799" transform="translate(155.668 179.285) scale(0.0513143) rotate(-142.218)"/>
<use xlink:href="#stroke0_2035_799" transform="translate(138.259 163.92) scale(0.0437411) rotate(-45.958)"/>
<use xlink:href="#stroke0_2035_799" transform="translate(155.332 172.742) scale(0.0550201) rotate(154.179)"/>
<use xlink:href="#stroke0_2035_799" transform="translate(141.381 166.799) scale(0.0361173) rotate(17.7851)"/>
<use xlink:href="#stroke0_2035_799" transform="translate(136.623 176.296) scale(0.0310875) rotate(-69.7749)"/>
<use xlink:href="#stroke0_2035_799" transform="translate(138.576 188.006) scale(0.0546451) rotate(-126.527)"/>
<use xlink:href="#stroke0_2035_799" transform="translate(135.362 179.684) scale(0.0412567) rotate(-148.606)"/>
<use xlink:href="#stroke0_2035_799" transform="translate(138.617 170.202) scale(0.0424409) rotate(111.629)"/>
<use xlink:href="#stroke0_2035_799" transform="translate(137.573 177.884) scale(0.0473259) rotate(146.322)"/>
<use xlink:href="#stroke0_2035_799" transform="translate(125.472 165.843) scale(0.0481396) rotate(45.3465)"/>
<use xlink:href="#stroke0_2035_799" transform="translate(119.081 173.232) scale(0.0319012) rotate(1.37949)"/>
<use xlink:href="#stroke0_2035_799" transform="translate(121.923 185.046) scale(0.0370484) rotate(-147.317)"/>
<use xlink:href="#stroke0_2035_799" transform="translate(122.149 178.177) scale(0.0429844) rotate(60.9598)"/>
<use xlink:href="#stroke0_2035_799" transform="translate(112.72 186.5) scale(0.0295252) rotate(-100.478)"/>
<use xlink:href="#stroke0_2035_799" transform="translate(117.159 174.672) scale(0.0302179) rotate(85.0591)"/>
<use xlink:href="#stroke0_2035_799" transform="translate(115.958 184.683) scale(0.0366584) rotate(178.468)"/>
<use xlink:href="#stroke0_2035_799" transform="translate(106.275 193.069) scale(0.0350892) rotate(-108.022)"/>
<use xlink:href="#stroke0_2035_799" transform="translate(104.3 196.57) scale(0.0526421) rotate(-126.423)"/>
<use xlink:href="#stroke0_2035_799" transform="translate(96.8431 188.284) scale(0.0468384) rotate(-99.8065)"/>
<use xlink:href="#stroke0_2035_799" transform="translate(95.3343 181.46) scale(0.0377731) rotate(9.12509)"/>
<use xlink:href="#stroke0_2035_799" transform="translate(105.811 183.719) scale(0.0518997) rotate(129.841)"/>
<use xlink:href="#stroke0_2035_799" transform="translate(87.8142 187.183) scale(0.0478943) rotate(-104.231)"/>
<use xlink:href="#stroke0_2035_799" transform="translate(97.0777 186.015) scale(0.0508685) rotate(168.032)"/>
<use xlink:href="#stroke0_2035_799" transform="translate(78.5723 192.285) scale(0.0518885) rotate(-96.5864)"/>
<use xlink:href="#stroke0_2035_799" transform="translate(79.8643 186.714) scale(0.026452) rotate(-105.923)"/>
<use xlink:href="#stroke0_2035_799" transform="translate(78.5484 184.522) scale(0.024727) rotate(-105.883)"/>
<use xlink:href="#stroke0_2035_799" transform="translate(76.839 192.973) scale(0.0546263) rotate(-133.121)"/>
<use xlink:href="#stroke0_2035_799" transform="translate(72.6333 174.502) scale(0.0321547) rotate(19.9333)"/>
<use xlink:href="#stroke0_2035_799" transform="translate(75.6403 185.307) scale(0.0306714) rotate(-169.344)"/>
<use xlink:href="#stroke0_2035_799" transform="translate(62.4958 174.902) scale(0.0545799) rotate(9.07246)"/>
<use xlink:href="#stroke0_2035_799" transform="translate(73.4618 166.547) scale(0.0522125) rotate(80.2094)"/>
<use xlink:href="#stroke0_2035_799" transform="translate(67.052 174.39) scale(0.0352736) rotate(89.8235)"/>
<use xlink:href="#stroke0_2035_799" transform="translate(67.1724 174.46) scale(0.0261357) rotate(150.339)"/>
<use xlink:href="#stroke0_2035_799" transform="translate(54.9109 173.707) scale(0.0279412) rotate(-51.0174)"/>
<use xlink:href="#stroke0_2035_799" transform="translate(62.1306 174.46) scale(0.030275) rotate(119.471)"/>
<use xlink:href="#stroke0_2035_799" transform="translate(50.2696 172.272) scale(0.0312362) rotate(-51.0537)"/>
<use xlink:href="#stroke0_2035_799" transform="translate(53.2024 174.572) scale(0.0258596) rotate(-116.762)"/>
<use xlink:href="#stroke0_2035_799" transform="translate(58.5046 168.617) scale(0.0376772) rotate(114.716)"/>
<use xlink:href="#stroke0_2035_799" transform="translate(48.0735 158.073) scale(0.0493785) rotate(27.8809)"/>
<use xlink:href="#stroke0_2035_799" transform="translate(50.7807 175.627) scale(0.0504568) rotate(-168.527)"/>
<use xlink:href="#stroke0_2035_799" transform="translate(50.3288 167.058) scale(0.0334767) rotate(173.273)"/>
<use xlink:href="#stroke0_2035_799" transform="translate(42.8675 158.474) scale(0.0306749) rotate(55.3583)"/>
<use xlink:href="#stroke0_2035_799" transform="translate(34.1597 166.923) scale(0.0501393) rotate(-90.7844)"/>
<use xlink:href="#stroke0_2035_799" transform="translate(36.6498 162.427) scale(0.0242288) rotate(-104.583)"/>
<use xlink:href="#stroke0_2035_799" transform="translate(39.5234 156.337) scale(0.0284101) rotate(93.7736)"/>
<use xlink:href="#stroke0_2035_799" transform="translate(40.1925 164.338) scale(0.0543974) rotate(-161.609)"/>
<use xlink:href="#stroke0_2035_799" transform="translate(32.9915 164.086) scale(0.0491799) rotate(-155.746)"/>
<use xlink:href="#stroke0_2035_799" transform="translate(20.6558 156.156) scale(0.0322411) rotate(-64.9522)"/>
<use xlink:href="#stroke0_2035_799" transform="translate(18.8591 151.345) scale(0.0332733) rotate(-39.2134)"/>
<use xlink:href="#stroke0_2035_799" transform="translate(29.2745 156.193) scale(0.0546268) rotate(-143.369)"/>
<use xlink:href="#stroke0_2035_799" transform="translate(29.524 148.012) scale(0.0288179) rotate(-167.292)"/>
<use xlink:href="#stroke0_2035_799" transform="translate(27.1152 143.246) scale(0.0239456) rotate(126.523)"/>
<use xlink:href="#stroke0_2035_799" transform="translate(25.3494 128.042) scale(0.0552469) rotate(39.9792)"/>
<use xlink:href="#stroke0_2035_799" transform="translate(16.423 143.507) scale(0.023159) rotate(-112.38)"/>
<use xlink:href="#stroke0_2035_799" transform="translate(22.0686 142.155) scale(0.0360723) rotate(-141.655)"/>
<use xlink:href="#stroke0_2035_799" transform="translate(24.6203 133.92) scale(0.0324526) rotate(130.908)"/>
<use xlink:href="#stroke0_2035_799" transform="translate(12.042 122.269) scale(0.0549284) rotate(11.5335)"/>
<use xlink:href="#stroke0_2035_799" transform="translate(11.8363 124.382) scale(0.042367) rotate(-31.5232)"/>
<use xlink:href="#stroke0_2035_799" transform="translate(8.32578 125.833) scale(0.0265205) rotate(-42.713)"/>
<use xlink:href="#stroke0_2035_799" transform="translate(7.46998 130.371) scale(0.0473936) rotate(-98.1408)"/>
<use xlink:href="#stroke0_2035_799" transform="translate(18.1747 115.185) scale(0.03604) rotate(86.3463)"/>
<use xlink:href="#stroke0_2035_799" transform="translate(1.0451 124.536) scale(0.0527057) rotate(-88.0092)"/>
<use xlink:href="#stroke0_2035_799" transform="translate(10.7201 117.934) scale(0.0451084) rotate(-87.0289)"/>
<use xlink:href="#stroke0_2035_799" transform="translate(6.04223 116.161) scale(0.0459451) rotate(-90.9146)"/>
<use xlink:href="#stroke0_2035_799" transform="translate(13.518 114.923) scale(0.0425818) rotate(-145.315)"/>
<use xlink:href="#stroke0_2035_799" transform="translate(5.68071 108.58) scale(0.0415104) rotate(-82.989)"/>
<use xlink:href="#stroke0_2035_799" transform="translate(4.92132 106.148) scale(0.0280814) rotate(-102.617)"/>
<use xlink:href="#stroke0_2035_799" transform="translate(24.4526 96.3932) scale(0.0526577) rotate(120.245)"/>
<use xlink:href="#stroke0_2035_799" transform="translate(0.386966 99.3667) scale(0.0372012) rotate(-81.1748)"/>
<use xlink:href="#stroke0_2035_799" transform="translate(16.7545 97.4986) scale(0.0478116) rotate(167.665)"/>
<use xlink:href="#stroke0_2035_799" transform="translate(17.4373 83.9335) scale(0.0557007) rotate(107.497)"/>
<use xlink:href="#stroke0_2035_799" transform="translate(4.81181 87.3555) scale(0.0380427) rotate(-63.1199)"/>
<use xlink:href="#stroke0_2035_799" transform="translate(-0.683322 82.1115) scale(0.0557537) rotate(-49.4553)"/>
<use xlink:href="#stroke0_2035_799" transform="matrix(0.032614 -0.03405 0.03405 0.032614 0.166371 77.5355)"/>
<use xlink:href="#stroke0_2035_799" transform="translate(14.7327 70.8993) scale(0.0302038) rotate(27.3491)"/>
<use xlink:href="#stroke0_2035_799" transform="translate(19.4258 74.8896) scale(0.0498579) rotate(150.907)"/>
<use xlink:href="#stroke0_2035_799" transform="translate(10.3365 62.194) scale(0.0341946) rotate(42.7222)"/>
<use xlink:href="#stroke0_2035_799" transform="translate(10.2265 72.3721) scale(0.0491235) rotate(-74.3618)"/>
<use xlink:href="#stroke0_2035_799" transform="translate(18.4515 60.7761) scale(0.0235973) rotate(76.2479)"/>
<use xlink:href="#stroke0_2035_799" transform="translate(20.5751 71.3895) scale(0.056051) rotate(-159.6)"/>
<use xlink:href="#stroke0_2035_799" transform="translate(18.7718 64.7267) scale(0.0267158) rotate(-125.626)"/>
<use xlink:href="#stroke0_2035_799" transform="translate(18.4347 57.0857) scale(0.0301482) rotate(-22.9874)"/>
<use xlink:href="#stroke0_2035_799" transform="translate(25.9187 51.803) scale(0.0487479) rotate(126.882)"/>
<use xlink:href="#stroke0_2035_799" transform="translate(17.3756 46.0123) scale(0.0248982) rotate(28.498)"/>
<use xlink:href="#stroke0_2035_799" transform="translate(14.1464 41.2478) scale(0.0433281) rotate(6.56189)"/>
<use xlink:href="#stroke0_2035_799" transform="translate(23.3178 56.6778) scale(0.0442671) rotate(-106.236)"/>
<use xlink:href="#stroke0_2035_799" transform="translate(34.6858 42.0267) scale(0.0402291) rotate(95.1678)"/>
<use xlink:href="#stroke0_2035_799" transform="translate(23.9826 45.6607) scale(0.0327955) rotate(-57.6442)"/>
<use xlink:href="#stroke0_2035_799" transform="translate(22.4453 40.748) scale(0.0308446) rotate(-52.0365)"/>
<use xlink:href="#stroke0_2035_799" transform="translate(38.9309 36.5678) scale(0.0395486) rotate(100.759)"/>
<use xlink:href="#stroke0_2035_799" transform="translate(29.0873 33.1398) scale(0.0557338) rotate(-6.23959)"/>
<use xlink:href="#stroke0_2035_799" transform="translate(44.0358 35.0155) scale(0.0548606) rotate(150.433)"/>
<use xlink:href="#stroke0_2035_799" transform="translate(45.7411 24.6093) scale(0.050494) rotate(88.8024)"/>
<use xlink:href="#stroke0_2035_799" transform="translate(41.9076 22.3315) scale(0.0294559) rotate(72.4205)"/>
<use xlink:href="#stroke0_2035_799" transform="translate(46.1481 26.329) scale(0.0251776) rotate(58.0353)"/>
<use xlink:href="#stroke0_2035_799" transform="translate(47.0993 33.1698) scale(0.0247865) rotate(-158.218)"/>
<use xlink:href="#stroke0_2035_799" transform="translate(52.0344 19.8316) scale(0.0456461) rotate(78.2506)"/>
<use xlink:href="#stroke0_2035_799" transform="translate(54.6904 22.5537) scale(0.0345744) rotate(122.959)"/>
<use xlink:href="#stroke0_2035_799" transform="translate(53.9153 15.9958) scale(0.0398508) rotate(65.9609)"/>
<use xlink:href="#stroke0_2035_799" transform="translate(59.134 12.084) scale(0.0533154) rotate(78.8729)"/>
<use xlink:href="#stroke0_2035_799" transform="translate(58.0123 17.793) scale(0.024631) rotate(47.1613)"/>
<use xlink:href="#stroke0_2035_799" transform="translate(48.7431 19.6133) scale(0.052702) rotate(-53.2824)"/>
<use xlink:href="#stroke0_2035_799" transform="translate(70.2809 17.5077) scale(0.0498374) rotate(146.536)"/>
<use xlink:href="#stroke0_2035_799" transform="translate(60.4356 2.74021) scale(0.0506626) rotate(23.3962)"/>
<use xlink:href="#stroke0_2035_799" transform="translate(74.2162 6.53189) scale(0.053299) rotate(74.1825)"/>
<use xlink:href="#stroke0_2035_799" transform="translate(75.6015 12.3649) scale(0.0240882) rotate(101.866)"/>
<use xlink:href="#stroke0_2035_799" transform="translate(73.3913 12.3865) scale(0.0265577) rotate(-160.376)"/>
<use xlink:href="#stroke0_2035_799" transform="translate(78.1227 12.3037) scale(0.0258737) rotate(165.427)"/>
<use xlink:href="#stroke0_2035_799" transform="translate(75.0379 19.7506) scale(0.0276084) rotate(-109.473)"/>
<use xlink:href="#stroke0_2035_799" transform="translate(80.3767 16.2686) scale(0.0232232) rotate(-161.691)"/>
<use xlink:href="#stroke0_2035_799" transform="translate(85.6451 3.52304) scale(0.039191) rotate(93.2993)"/>
<use xlink:href="#stroke0_2035_799" transform="translate(76.6156 14.4635) scale(0.0396388) rotate(-71.7829)"/>
<use xlink:href="#stroke0_2035_799" transform="translate(80.2509 7.49351) scale(0.0305004) rotate(-84.8224)"/>
<use xlink:href="#stroke0_2035_799" transform="translate(90.9961 17.8194) scale(0.0554687) rotate(-150.892)"/>
<use xlink:href="#stroke0_2035_799" transform="translate(86.6236 10.3921) scale(0.0332029) rotate(-83.8064)"/>
<use xlink:href="#stroke0_2035_799" transform="translate(100.652 3.27986) scale(0.0539773) rotate(76.1061)"/>
<use xlink:href="#stroke0_2035_799" transform="translate(104.355 16.2076) scale(0.0444282) rotate(178.058)"/>
<use xlink:href="#stroke0_2035_799" transform="translate(104.749 3.74142) scale(0.0404595) rotate(68.7576)"/>
<use xlink:href="#stroke0_2035_799" transform="translate(99.6735 1.28903) scale(0.037619) rotate(1.25541)"/>
<use xlink:href="#stroke0_2035_799" transform="translate(102.647 1.65521) scale(0.0272234) rotate(-14.1913)"/>
<use xlink:href="#stroke0_2035_799" transform="translate(112.13 11.3016) scale(0.0289194) rotate(-174.817)"/>
<use xlink:href="#stroke0_2035_799" transform="translate(115.701 11.6149) scale(0.0299478) rotate(160.414)"/>
<use xlink:href="#stroke0_2035_799" transform="translate(109.185 7.99902) scale(0.0273813) rotate(6.43713)"/>
<use xlink:href="#stroke0_2035_799" transform="translate(120.672 0.187613) scale(0.0418087) rotate(80.9934)"/>
<use xlink:href="#stroke0_2035_799" transform="translate(115.678 2.90409) scale(0.0247772) rotate(9.69095)"/>
<use xlink:href="#stroke0_2035_799" transform="translate(115.247 9.91283) scale(0.0319812) rotate(-78.2366)"/>
<use xlink:href="#stroke0_2035_799" transform="translate(114.526 13.0832) scale(0.0431232) rotate(-64.8835)"/>
<use xlink:href="#stroke0_2035_799" transform="translate(120.869 16.4568) scale(0.0285845) rotate(-95.7956)"/>
<use xlink:href="#stroke0_2035_799" transform="translate(121.174 3.01185) scale(0.0518445) rotate(-5.2275)"/>
<use xlink:href="#stroke0_2035_799" transform="translate(125.884 10.5475) scale(0.0262951) rotate(-25.2977)"/>
<use xlink:href="#stroke0_2035_799" transform="translate(141.051 7.28975) scale(0.0500783) rotate(97.3445)"/>
<use xlink:href="#stroke0_2035_799" transform="translate(138.533 7.12859) scale(0.0413032) rotate(60.0727)"/>
<use xlink:href="#stroke0_2035_799" transform="translate(147.802 19.9694) scale(0.0505823) rotate(170.009)"/>
<use xlink:href="#stroke0_2035_799" transform="translate(138.276 15.3423) scale(0.032352) rotate(28.11)"/>
<use xlink:href="#stroke0_2035_799" transform="translate(151.154 27.2797) scale(0.0537862) rotate(148.863)"/>
<use xlink:href="#stroke0_2035_799" transform="translate(147.884 16.4858) scale(0.0347964) rotate(58.8508)"/>
<use xlink:href="#stroke0_2035_799" transform="translate(144.311 21.9699) scale(0.0257449) rotate(20.3426)"/>
<use xlink:href="#stroke0_2035_799" transform="translate(149.554 18.7788) scale(0.0529677) rotate(52.2373)"/>
<use xlink:href="#stroke0_2035_799" transform="translate(157.304 27.9959) scale(0.026424) rotate(139.84)"/>
<use xlink:href="#stroke0_2035_799" transform="translate(164.656 30.1793) scale(0.0458883) rotate(173.767)"/>
<use xlink:href="#stroke0_2035_799" transform="translate(156.407 19.7204) scale(0.054467) rotate(31.4533)"/>
<use xlink:href="#stroke0_2035_799" transform="translate(162.789 29.5149) scale(0.0363867) rotate(83.8483)"/>
<use xlink:href="#stroke0_2035_799" transform="translate(160.542 32.476) scale(0.0239317) rotate(-63.4949)"/>
<use xlink:href="#stroke0_2035_799" transform="translate(173.181 37.41) scale(0.0538758) rotate(135.739)"/>
<use xlink:href="#stroke0_2035_799" transform="translate(173.6 38.5764) scale(0.0312184) rotate(152.507)"/>
<use xlink:href="#stroke0_2035_799" transform="translate(168.519 41.7394) scale(0.0263487) rotate(119.19)"/>
<use xlink:href="#stroke0_2035_799" transform="translate(162.259 43.2986) scale(0.0383178) rotate(-62.1995)"/>
<use xlink:href="#stroke0_2035_799" transform="translate(178.885 44.3924) scale(0.0356417) rotate(149.809)"/>
<use xlink:href="#stroke0_2035_799" transform="translate(174.227 49.3359) scale(0.0237851) rotate(-174.46)"/>
<use xlink:href="#stroke0_2035_799" transform="translate(171.171 42.3634) scale(0.036912) rotate(51.2247)"/>
<use xlink:href="#stroke0_2035_799" transform="translate(178.745 45.371) scale(0.0252529) rotate(89.4527)"/>
<use xlink:href="#stroke0_2035_799" transform="translate(177.948 54.6897) scale(0.0266389) rotate(170.05)"/>
<use xlink:href="#stroke0_2035_799" transform="translate(178.242 61.3983) scale(0.044084) rotate(-152.385)"/>
<use xlink:href="#stroke0_2035_799" transform="translate(170.694 63.3967) scale(0.0404058) rotate(-101.173)"/>
<use xlink:href="#stroke0_2035_799" transform="translate(184.7 59.3813) scale(0.023655) rotate(165.288)"/>
<use xlink:href="#stroke0_2035_799" transform="translate(178.913 65.3885) scale(0.0403844) rotate(-107.063)"/>
<use xlink:href="#stroke0_2035_799" transform="translate(168.675 68.7994) scale(0.0463695) rotate(-74.3408)"/>
<use xlink:href="#stroke0_2035_799" transform="translate(193.603 66.6752) scale(0.0487739) rotate(140.717)"/>
<use xlink:href="#stroke0_2035_799" transform="translate(187.624 66.0046) scale(0.0517706) rotate(102.404)"/>
<use xlink:href="#stroke0_2035_799" transform="translate(185.497 67.2238) scale(0.0249139) rotate(13.9676)"/>
<use xlink:href="#stroke0_2035_799" transform="translate(193.793 80.3584) scale(0.0453982) rotate(-179.445)"/>
<use xlink:href="#stroke0_2035_799" transform="translate(190.828 85.2081) scale(0.0535566) rotate(171.995)"/>
<use xlink:href="#stroke0_2035_799" transform="translate(177.588 79.7098) scale(0.0281747) rotate(-23.836)"/>
<use xlink:href="#stroke0_2035_799" transform="translate(187.707 92.8616) scale(0.0477026) rotate(-143.99)"/>
<use xlink:href="#stroke0_2035_799" transform="translate(195.249 84.5089) scale(0.042387) rotate(113.946)"/>
<use xlink:href="#stroke0_2035_799" transform="translate(190.886 86.7874) scale(0.0359236) rotate(103.217)"/>
<use xlink:href="#stroke0_2035_799" transform="translate(186.343 103.393) scale(0.05401) rotate(-130.938)"/>
<use xlink:href="#stroke0_2035_799" transform="translate(177.276 99.5065) scale(0.0378892) rotate(-78.1389)"/>
<defs>
<g id="stroke0_2035_799" data-figma-scatter-ref="stroke0_2035_799_ref" data-figma-scatter="f0.28_w0.5_aj180_sj0.56_r15_s366930997454625535_sw10">
<path d="M161.622 271.62C162.801 270.44 165.001 270.908 165.598 272.466C166.28 274.243 164.308 276.953 162.333 276.953C160.932 276.952 160.386 272.855 161.622 271.62ZM125.347 271.526C126.214 268.071 129.955 267.913 129.955 271.331C129.955 274.319 127.339 276.737 125.786 275.184C125.188 274.586 124.991 272.944 125.347 271.526ZM90.9548 269.953C92.4998 269.953 93.222 272.086 92.068 273.24C90.688 274.62 88.3711 272.708 89.4011 271.04C89.771 270.442 90.4698 269.953 90.9548 269.953ZM141.512 256.176C145.165 250.962 153.033 256.131 149.547 261.453C147.571 264.469 144.663 264.661 141.955 261.953C139.547 259.545 139.508 259.036 141.512 256.176ZM73.2048 251.23C75.5376 250.164 78.9543 251.195 78.9548 252.965C78.9548 254.503 74.0936 257.221 72.4626 256.595C70.1919 255.723 70.6521 252.397 73.2048 251.23ZM179.586 250.7C181.676 246.659 184.455 247.382 184.455 251.967C184.455 254.88 184.063 255.508 182.068 255.79C178.812 256.251 177.794 254.165 179.586 250.7ZM110.955 251.953C112.5 251.953 113.222 254.086 112.068 255.24C110.688 256.62 108.371 254.708 109.401 253.04C109.771 252.442 110.47 251.953 110.955 251.953ZM125.484 235.308C127.968 233.492 129.882 233.6 130.649 235.599C131.313 237.329 128.652 239.953 126.232 239.953C123.969 239.953 123.459 236.79 125.484 235.308ZM56.4548 232.953C58.3068 232.953 60.1711 235.593 59.7741 237.655C59.5331 238.905 58.5208 239.453 56.4548 239.453C53.15 239.453 51.913 236.914 53.9948 234.405C54.6577 233.606 55.7648 232.953 56.4548 232.953ZM160.318 235.45C161.227 233.081 165.455 233.896 165.455 236.439C165.455 238.645 162.346 239.744 160.716 238.114C160.151 237.549 159.972 236.351 160.318 235.45ZM196.198 234.11C197.852 232.456 202.454 233.054 202.455 234.923C202.455 236.69 198.218 238.991 196.312 238.261C194.617 237.61 194.566 235.742 196.198 234.11ZM90.9548 234.953C91.5047 234.953 91.9547 235.403 91.9548 235.953C91.9548 236.503 91.5048 236.953 90.9548 236.953C90.4049 236.953 89.9548 236.503 89.9548 235.953C89.9548 235.403 90.4049 234.953 90.9548 234.953ZM71.5514 214.259C74.027 212.449 74.6796 212.586 77.6345 215.541C81.1173 219.024 78.0602 223.076 73.2272 221.384C69.8362 220.196 68.8974 216.2 71.5514 214.259ZM34.9665 215.44C37.4415 212.458 42.9548 214.246 42.9548 218.031C42.9548 220.921 40.2601 222.413 37.3972 221.109C34.3162 219.705 33.3325 217.409 34.9665 215.44ZM179.159 214.523C181.95 212.567 185.454 214.484 185.455 217.966C185.455 221.094 183.104 222.358 179.705 221.057C176.335 219.766 176.077 216.681 179.159 214.523ZM214.155 215.153C216.556 212.752 221.955 214.69 221.955 217.953C221.955 220.669 218.715 222.192 215.52 220.978C212.789 219.94 212.14 217.168 214.155 215.153ZM107.319 217.446C108.12 215.36 111.324 215.917 111.767 218.219C112.165 220.284 109.278 221.677 107.755 220.153C107.169 219.567 106.973 218.349 107.319 217.446ZM143.431 216.992C144.483 215.289 148.382 216.176 148.769 218.206C148.952 219.17 148.36 220.245 147.451 220.594C145.466 221.355 142.421 218.627 143.431 216.992ZM123.155 197.153C125.911 194.397 132.955 197.004 132.955 200.779C132.955 203.022 129.938 205.953 127.629 205.953C123.218 205.953 120.231 200.077 123.155 197.153ZM231.155 197.153C233.347 194.961 237.885 195.705 239.141 198.463C240.423 201.275 237.199 205.953 233.981 205.953C230.36 205.953 228.414 199.894 231.155 197.153ZM53.0827 197.007C60.5555 193.946 64.7518 201.175 57.5075 204.629C53.4156 206.581 52.3072 205.961 51.3513 201.185C50.8033 198.446 51.0548 197.838 53.0827 197.007ZM196.205 196.962C197.443 196.453 199.58 196.13 200.955 196.244C205.799 196.649 204.127 203.891 198.873 205.265C194.383 206.438 191.907 198.732 196.205 196.962ZM160.564 197.487C163.37 194.681 166.955 196.37 166.955 200.498C166.955 203.092 163.864 206.133 162.245 205.132C159.905 203.686 158.907 199.144 160.564 197.487ZM88.5593 199.108C90.4402 196.423 92.1249 196.379 94.4548 198.953C96.2018 200.883 96.2018 201.023 94.4548 202.953C90.7188 207.081 85.4033 203.614 88.5593 199.108ZM18.2048 196.615C21.6617 195.22 24.3307 197.341 23.7819 201.046C23.2719 204.483 20.1722 205.903 18.3962 203.513C16.6233 201.125 16.517 197.296 18.2048 196.615ZM177.574 178.242C182.074 174.952 188.12 178.726 186.369 183.733C185.322 186.727 180.908 187.989 178.493 185.984C176.118 184.014 175.604 179.682 177.574 178.242ZM213.622 178.62C214.727 177.515 219.471 177.87 220.755 179.153C222.641 181.039 222.168 184.768 219.888 185.989C215.974 188.084 210.544 181.697 213.622 178.62ZM72.0075 181.391C73.1314 180.037 73.4588 180.028 74.7555 181.325C76.4955 183.065 75.6838 185.953 73.4548 185.953C71.31 185.953 70.4556 183.26 72.0075 181.391ZM106.155 179.153C107.61 177.698 109.02 177.648 112.39 178.929C116.93 180.655 115.094 185.953 109.955 185.953C105.588 185.953 103.354 181.954 106.155 179.153ZM143.339 180.395C144.582 177.156 149.462 180.083 148.774 183.655C148.301 186.112 143.609 186.104 143.134 183.645C142.943 182.651 143.035 181.188 143.339 180.395ZM35.3386 180.395C36.0985 178.414 40.8669 178.56 41.6462 180.589C42.5552 182.958 40.613 185.453 37.86 185.453C35.4112 185.453 34.2738 183.17 35.3386 180.395ZM249.136 180.234C249.767 179.474 251.447 178.987 252.869 179.152C256.507 179.575 256.625 184.287 253.011 184.798C249.914 185.235 247.422 182.3 249.136 180.234ZM1.62176 179.62C2.75172 178.489 3.84231 178.873 4.85028 180.757C6.07525 183.045 4.65825 185.437 2.55633 184.63C0.953362 184.015 0.367857 180.874 1.62176 179.62ZM195.155 161.153C199.2 157.108 205.563 162.129 203.137 167.453C200.971 172.208 193.955 170.297 193.955 164.953C193.955 163.523 194.495 161.813 195.155 161.153ZM122.99 161.888C125.209 157.743 133.337 161.845 132.76 166.819C132.498 169.085 131.921 169.497 128.635 169.768C122.714 170.255 120.308 166.899 122.99 161.888ZM159.2 162.108C160.917 160.391 166.018 161.077 167.349 163.203C168.87 165.631 167.004 168.364 163.544 168.775C158.898 169.328 156.169 165.139 159.2 162.108ZM17.8679 163.847C20.8558 161.398 23.3531 161.759 23.7731 164.704C24.2421 167.99 19.5737 170.013 17.1677 167.566C15.5488 165.919 15.5872 165.716 17.8679 163.847ZM53.3181 164.45C54.2271 162.081 58.4548 162.896 58.4548 165.439C58.4546 167.645 55.3465 168.744 53.7165 167.114C53.1515 166.549 52.972 165.351 53.3181 164.45ZM90.4011 165.04C91.191 163.762 92.6307 163.62 93.3298 164.751C94.2917 166.307 92.1385 168.536 90.8845 167.282C90.2495 166.647 90.0321 165.638 90.4011 165.04ZM233.455 164.953C233.939 164.17 234.514 164.112 235.181 164.779C235.731 165.329 235.854 166.307 235.455 166.953C234.971 167.736 234.396 167.794 233.729 167.127C233.179 166.577 233.056 165.599 233.455 164.953ZM72.155 143.153C74.201 141.107 75.9215 141.814 77.6335 145.405C79.4463 149.206 78.3548 151.953 75.0329 151.953C71.365 151.953 69.3911 145.917 72.155 143.153ZM140.99 143.888C143.209 139.743 151.337 143.845 150.76 148.819C150.498 151.085 149.921 151.497 146.635 151.768C140.714 152.255 138.308 148.899 140.99 143.888ZM214.371 144.31C215.315 141.85 219.296 143.115 220.383 146.22C221.148 148.402 220.991 149.346 219.635 150.702C216.554 153.783 212.585 148.965 214.371 144.31ZM104.622 142.62C105.751 141.49 112.484 141.883 113.755 143.153C116.971 146.369 114.013 150.953 108.721 150.953C104.846 150.953 102.025 145.217 104.622 142.62ZM248.622 142.62C251.659 139.582 258.199 144.269 256.629 148.359C255.819 150.469 251.281 151.469 249.442 149.942C247.938 148.694 247.395 143.847 248.622 142.62ZM35.155 143.153C36.8479 141.46 39.9777 141.664 42.1257 143.608C44.6817 145.921 44.4038 148.791 41.4958 150.116C36.8629 152.227 31.7242 146.584 35.155 143.153ZM178.001 143.398C180.63 140.23 185.955 142.327 185.955 146.531C185.955 149.786 183.572 151.325 180.239 150.22C177.156 149.198 176.032 145.771 178.001 143.398ZM1.18426 144.124C2.95012 142.358 5.40436 143.125 5.75262 145.551C6.10859 148.031 3.58934 150.41 1.46844 149.597C-0.35556 148.897 -0.51474 145.823 1.18426 144.124ZM125.522 126.879C128.986 123.051 132.286 125.737 130.077 130.585C129.266 132.364 128.29 132.997 126.706 132.771C123.867 132.366 123.266 129.372 125.522 126.879ZM90.9548 125.953C92.4118 125.953 94.1733 128.943 93.5983 130.44C93.2793 131.272 92.0897 131.953 90.9548 131.953C88.4109 131.953 87.3045 129.442 88.9665 127.44C89.6443 126.623 90.5397 125.953 90.9548 125.953ZM231.291 128.52C232.202 126.145 235.955 126.518 235.955 128.984C235.955 131.343 233.31 132.708 231.755 131.153C231.169 130.567 230.96 129.382 231.291 128.52ZM53.3386 125.395C54.5816 122.156 59.4621 125.083 58.7741 128.655C58.3011 131.112 53.6088 131.104 53.1345 128.645C52.9435 127.651 53.0347 126.187 53.3386 125.395ZM196.339 125.395C197.582 122.156 202.462 125.083 201.774 128.655C201.301 131.112 196.609 131.104 196.134 128.645C195.943 127.651 196.035 126.187 196.339 125.395ZM18.7048 123.033C21.1938 121.583 21.6583 121.691 23.3513 124.108C26.093 128.023 21.5169 132.115 18.155 128.753C16.4142 127.012 16.684 124.21 18.7048 123.033ZM161.551 123.259C163.914 121.531 164.32 121.594 166.508 124.013C168.958 126.719 167.37 129.453 163.346 129.453C159.801 129.453 158.626 125.398 161.551 123.259ZM176.792 108.412C178.282 105.142 183.179 105.008 185.398 108.176C187.404 111.039 187.359 112.233 185.143 114.97C181.634 119.302 174.413 113.633 176.792 108.412ZM35.1979 107.11C38.6209 103.687 45.9262 109.585 43.3542 113.694C42.0142 115.835 37.3673 116.54 35.3952 114.903C33.6272 113.436 33.51 108.798 35.1979 107.11ZM106.155 108.153C109.274 105.034 116.569 109.157 114.312 112.763C113.008 114.846 108.341 115.518 106.395 113.903C104.642 112.449 104.531 109.777 106.155 108.153ZM248.885 109.537C251.5 106.388 256.541 108.671 255.774 112.655C255.536 113.889 254.525 114.453 252.55 114.453C248.965 114.453 246.996 111.813 248.885 109.537ZM72.7048 108.014C75.4777 106.366 78.4171 107.183 78.7741 109.701C79.1151 112.099 74.9529 114.55 72.2829 113.525C70.3741 112.793 70.6471 109.236 72.7048 108.014ZM215.577 108.24C217.848 106.579 219.901 106.913 221.325 109.175C222.736 111.415 221.245 112.962 217.404 113.243C213.892 113.5 212.731 110.321 215.577 108.24ZM1.36395 110.329C1.86393 109.025 2.29819 108.896 3.18817 109.786C4.07716 110.675 4.07356 111.235 3.17156 112.137C1.6438 113.664 0.517033 112.537 1.36395 110.329ZM142.401 110.04C143.42 108.392 146.955 108.737 146.955 110.484C146.955 111.327 146.25 112.286 145.388 112.617C143.507 113.339 141.456 111.569 142.401 110.04ZM198.332 89.7538C199.769 88.8208 202.955 91.7971 202.955 94.0731C202.955 95.0681 202.085 96.3478 201.021 96.9179C195.912 99.6518 193.399 92.9558 198.332 89.7538ZM53.9899 90.8876C55.8619 87.3906 59.9547 89.2641 59.9548 93.6181C59.9548 96.521 56.4363 98.597 54.3913 96.9003C52.6944 95.4924 52.5651 93.5514 53.9899 90.8876ZM124.949 91.4599C126.748 89.2921 129.384 89.9791 129.775 92.7177C130.185 95.5927 127.358 96.7845 125.213 94.6405C123.886 93.3125 123.842 92.7938 124.949 91.4599ZM89.9548 92.453C89.9548 91.5361 90.439 90.9484 91.03 91.1454C91.6209 91.3424 92.1051 91.9311 92.1052 92.453C92.1052 92.975 91.621 93.5646 91.03 93.7616C90.439 93.9584 89.9548 93.3699 89.9548 92.453ZM106.012 73.8466C107.322 71.3997 110.172 71.4303 112.421 73.9159C114.452 76.1589 113.962 78.3446 111.082 79.8856C108.331 81.3569 104.461 76.7474 106.012 73.8466ZM71.7048 71.0331C74.3617 69.4851 75.3919 69.7252 77.9968 72.4979C80.7467 75.4249 79.87 78.213 76.0202 78.7831C71.4303 79.4631 67.953 73.2192 71.7048 71.0331ZM178.705 71.0331C181.256 69.5472 182.435 69.7213 184.38 71.871C188.234 76.1299 184.175 80.7468 179.008 77.9813C176.476 76.6264 176.293 72.4382 178.705 71.0331ZM214.155 72.1532C216.97 69.3383 222.522 71.8079 221.788 75.5477C221.237 78.3477 218.469 79.5078 215.533 78.1698C212.799 76.9248 212.163 74.1451 214.155 72.1532ZM34.9665 72.4403C36.6944 70.3586 40.3146 70.5883 42.4206 72.9159C45.6806 76.5179 42.054 80.2297 37.363 78.0927C34.3142 76.7037 33.3375 74.4023 34.9665 72.4403ZM143.955 74.452C145.696 72.3551 148.455 72.9691 148.455 75.453C148.455 77.662 145.336 78.7338 143.691 77.0888C142.956 76.3538 143.035 75.5609 143.955 74.452ZM91.4548 52.953C93.1596 52.953 95.0944 53.4933 95.7546 54.1532C98.5466 56.9452 95.7296 62.953 91.6286 62.953C87.2179 62.9526 84.2312 57.0771 87.155 54.1532C87.8149 53.4932 89.7498 52.9531 91.4548 52.953ZM123.2 54.1083C125.267 52.0413 129.919 53.1572 131.727 56.1522C134.87 61.3581 127.017 65.7348 123.512 60.7304C121.632 58.0474 121.526 55.7823 123.2 54.1083ZM234.455 52.953C238.789 52.953 240.43 57.6659 237.3 61.1239C235.255 63.3829 234.127 63.4187 231.784 61.2977C229.695 59.4067 229.388 55.9202 231.155 54.1532C231.815 53.4933 233.3 52.9531 234.455 52.953ZM53.2048 53.9618C59.9138 51.1998 63.8957 56.4948 58.3747 60.8368C54.8289 63.6256 53.1163 63.5071 51.9304 60.3886C50.4444 56.4786 50.7419 54.9758 53.2048 53.9618ZM160.564 54.4872C163.37 51.6813 166.955 53.3701 166.955 57.4979C166.955 60.0919 163.864 63.1327 162.245 62.1317C159.905 60.6855 158.907 56.1441 160.564 54.4872ZM195.587 54.2323C198.69 51.9604 203.399 52.9831 203.752 56.0048C204.176 59.6408 200.641 62.5122 196.284 62.0712C194.057 61.8459 193.515 55.7487 195.587 54.2323ZM17.3473 55.3749C18.0766 53.4732 21.3902 53.5672 23.0251 55.537C24.5491 57.374 23.2487 60.2546 20.6647 60.7636C18.8228 61.126 16.5544 57.4408 17.3473 55.3749ZM106.155 36.1532C107.628 34.6802 109.479 34.6282 112.021 35.9882C115.627 37.9182 113.772 42.953 109.455 42.953C105.545 42.9528 103.522 38.7862 106.155 36.1532ZM177.155 35.1532C178.855 33.4532 183.471 33.6656 185.005 35.5136C188.37 39.5695 181.517 45.325 177.395 41.9032C175.645 40.4512 175.515 36.7932 177.155 35.1532ZM35.9948 36.4052C37.4888 34.6052 39.0418 34.5655 41.3727 36.2694C43.4967 37.8224 43.1708 40.7877 40.7048 42.3407C37.2398 44.5227 33.338 39.6062 35.9948 36.4052ZM71.155 36.1532C73.9848 33.3233 79.3609 36.035 78.8005 40.0087C78.5425 41.8396 77.7501 42.5343 75.6452 42.7753C70.9402 43.3153 68.1341 39.1742 71.155 36.1532ZM144.168 37.1415C145.639 35.6695 146.962 36.0172 148.367 38.244C149.929 40.72 146.723 43.835 144.505 41.995C142.643 40.4492 142.527 38.7813 144.168 37.1415ZM214.033 37.3593C215.127 36.0413 215.465 36.0355 216.737 37.3075C218.339 38.9095 217.62 40.953 215.455 40.953C213.373 40.9529 212.623 39.0582 214.033 37.3593ZM195.979 22.9296C199.6 19.3086 204.362 21.486 203.791 26.5018C203.483 29.2058 203.13 29.453 199.57 29.453C194.623 29.453 192.788 26.1205 195.979 22.9296ZM122.99 18.8876C125.233 14.6976 132.366 18.4534 131.789 23.5214C131.523 25.8602 130.909 26.5165 128.754 26.7655C123.152 27.4112 120.424 23.6833 122.99 18.8876ZM54.11 19.5575C58.552 16.4465 62.0997 21.7018 58.0378 25.3778C56.5088 26.7618 55.6998 26.8869 54.0378 25.9979C51.3411 24.5539 51.3753 21.4734 54.11 19.5575ZM163.455 17.953C166.798 17.953 168.127 23.2547 165.179 24.8329C161.481 26.8119 158.169 22.1392 161.155 19.1532C161.815 18.4933 162.85 17.9532 163.455 17.953ZM91.9548 21.953C92.5047 21.953 92.9547 22.4031 92.9548 22.953C92.9548 23.503 92.5048 23.953 91.9548 23.953C91.4049 23.9529 90.9548 23.5029 90.9548 22.953C90.9548 22.4032 91.4049 21.9532 91.9548 21.953ZM107.061 1.75477C108.525 -0.979662 111.39 -0.0898075 111.772 3.21669C112.171 6.67755 109.3 8.145 107.349 5.47743C106.397 4.17543 106.317 3.14477 107.061 1.75477ZM142.264 1.58876C143.043 -0.437771 147.288 -0.554549 148.915 1.40517C150.968 3.87805 149.761 6.45278 146.55 6.45302C143.362 6.45302 141.297 4.10976 142.264 1.58876Z" fill="#617A9C"/>
</g>
<path id="stroke0_2035_799_ref" d="M186.634 95.8225C186.634 144.424 147.235 183.823 98.6342 183.823C50.0331 183.823 10.6342 144.424 10.6342 95.8225C10.6342 47.2215 50.0331 7.82251 98.6342 7.82251C147.235 7.82251 186.634 47.2215 186.634 95.8225Z"/>
</defs>
</svg>
