<svg width="28" height="23" viewBox="0 0 28 23" fill="none" xmlns="http://www.w3.org/2000/svg">
<path d="M25.7748 2.90254C24.7299 1.04491 22.8722 0 20.7823 0H6.96615C4.87632 0 3.01864 1.04491 1.97373 2.90254C0.696609 5.22457 0 7.77886 0 10.4492C0 16.8348 2.55423 22.0595 5.80513 22.0595C7.54666 22.0595 8.93993 20.434 9.98484 17.067C10.1009 16.6026 10.5654 16.2543 11.1459 16.2543H16.8349C17.2993 16.2543 17.7637 16.6026 17.9959 17.067C19.0408 20.434 20.434 22.0595 22.1756 22.0595C25.4265 22.0595 27.9808 16.8348 27.9808 10.4492C27.7485 7.7788 27.0519 5.22457 25.7748 2.90254ZM10.4493 9.28818H9.28823V10.4492C9.28823 11.1458 8.82383 11.6102 8.12722 11.6102C7.43061 11.6102 6.9662 11.1458 6.9662 10.4492V9.28818H5.80519C5.10858 9.28818 4.64417 8.82377 4.64417 8.12716C4.64417 7.43056 5.10858 6.96615 5.80519 6.96615H6.9662V5.80513C6.9662 5.10852 7.43061 4.64412 8.12722 4.64412C8.82383 4.64412 9.28823 5.10852 9.28823 5.80513V6.96615H10.4493C11.1459 6.96615 11.6103 7.43056 11.6103 8.12716C11.6103 8.82377 11.1459 9.28818 10.4493 9.28818ZM18.112 11.6102C17.1832 11.6102 16.3705 10.7975 16.3705 9.86869C16.3705 8.93988 17.1832 8.12716 18.112 8.12716C19.0408 8.12716 19.8535 8.93988 19.8535 9.86869C19.8535 10.7975 18.9247 11.6102 18.112 11.6102ZM21.479 8.12716C20.6663 8.12716 19.7375 7.31445 19.7375 6.38564C19.7375 5.45683 20.6663 4.64412 21.479 4.64412C22.2917 4.64412 23.2205 5.45683 23.2205 6.38564C23.2205 7.31445 22.4078 8.12716 21.479 8.12716Z" fill="white"/>
</svg>
