<svg width="26" height="26" viewBox="0 0 26 26" fill="none" xmlns="http://www.w3.org/2000/svg">
<g clip-path="url(#clip0_2033_760)">
<path d="M24.9165 11.9174H22.7498V9.75069C22.7498 9.46337 22.6357 9.18782 22.4325 8.98466C22.2294 8.78149 21.9538 8.66736 21.6665 8.66736C21.3792 8.66736 21.1036 8.78149 20.9005 8.98466C20.6973 9.18782 20.5832 9.46337 20.5832 9.75069V11.9174H18.4165C18.1292 11.9174 17.8536 12.0315 17.6505 12.2347C17.4473 12.4378 17.3332 12.7134 17.3332 13.0007C17.3332 13.288 17.4473 13.5636 17.6505 13.7667C17.8536 13.9699 18.1292 14.084 18.4165 14.084H20.5832V16.2507C20.5832 16.538 20.6973 16.8135 20.9005 17.0167C21.1036 17.2199 21.3792 17.334 21.6665 17.334C21.9538 17.334 22.2294 17.2199 22.4325 17.0167C22.6357 16.8135 22.7498 16.538 22.7498 16.2507V14.084H24.9165C25.2038 14.084 25.4794 13.9699 25.6825 13.7667C25.8857 13.5636 25.9998 13.288 25.9998 13.0007C25.9998 12.7134 25.8857 12.4378 25.6825 12.2347C25.4794 12.0315 25.2038 11.9174 24.9165 11.9174Z" fill="white"/>
<path d="M9.74998 12.9999C11.0356 12.9999 12.2923 12.6187 13.3612 11.9044C14.4301 11.1902 15.2632 10.175 15.7552 8.98732C16.2472 7.7996 16.3759 6.49267 16.1251 5.23179C15.8743 3.97092 15.2552 2.81273 14.3462 1.90369C13.4371 0.994645 12.2789 0.37558 11.0181 0.124777C9.7572 -0.126027 8.45026 0.00269429 7.26254 0.494664C6.07482 0.986634 5.05966 1.81975 4.34543 2.88867C3.6312 3.95759 3.24998 5.2143 3.24998 6.49988C3.25171 8.22326 3.93708 9.87556 5.15569 11.0942C6.37431 12.3128 8.02661 12.9982 9.74998 12.9999ZM9.74998 2.16655C10.607 2.16655 11.4448 2.42069 12.1575 2.89685C12.8701 3.373 13.4255 4.04977 13.7535 4.84159C14.0814 5.6334 14.1673 6.50469 14.0001 7.34527C13.8329 8.18586 13.4201 8.95798 12.8141 9.56401C12.2081 10.17 11.436 10.5827 10.5954 10.75C9.75479 10.9172 8.8835 10.8313 8.09169 10.5034C7.29988 10.1754 6.6231 9.61996 6.14695 8.90735C5.6708 8.19474 5.41665 7.35693 5.41665 6.49988C5.41665 5.35061 5.8732 4.24841 6.68586 3.43575C7.49851 2.62309 8.60071 2.16655 9.74998 2.16655V2.16655Z" fill="white"/>
<path d="M9.74999 15.1674C7.165 15.1702 4.68672 16.1984 2.85886 18.0262C1.031 19.8541 0.00285217 22.3324 -1.52588e-05 24.9174C-1.52588e-05 25.2047 0.114121 25.4802 0.317286 25.6834C0.52045 25.8866 0.796 26.0007 1.08332 26.0007C1.37064 26.0007 1.64619 25.8866 1.84935 25.6834C2.05251 25.4802 2.16665 25.2047 2.16665 24.9174C2.16665 22.9061 2.96561 20.9773 4.38776 19.5551C5.80991 18.133 7.73876 17.334 9.74999 17.334C11.7612 17.334 13.6901 18.133 15.1122 19.5551C16.5344 20.9773 17.3333 22.9061 17.3333 24.9174C17.3333 25.2047 17.4475 25.4802 17.6506 25.6834C17.8538 25.8866 18.1293 26.0007 18.4167 26.0007C18.704 26.0007 18.9795 25.8866 19.1827 25.6834C19.3858 25.4802 19.5 25.2047 19.5 24.9174C19.4971 22.3324 18.469 19.8541 16.6411 18.0262C14.8133 16.1984 12.335 15.1702 9.74999 15.1674V15.1674Z" fill="white"/>
</g>
<defs>
<clipPath id="clip0_2033_760">
<rect width="26" height="26" fill="white"/>
</clipPath>
</defs>
</svg>
