<svg width="28" height="28" viewBox="0 0 28 28" fill="none" xmlns="http://www.w3.org/2000/svg">
<g clip-path="url(#clip0_2037_826)">
<path d="M21 22.1667V27.65C21.8234 27.3677 22.5727 26.9035 23.1922 26.292L26.2908 23.191C26.9031 22.5723 27.3677 21.8234 27.65 21H22.1667C21.8572 21 21.5605 21.1229 21.3417 21.3417C21.1229 21.5605 21 21.8572 21 22.1667Z" fill="white"/>
<path d="M8.36733 16.1325C7.93382 16.5659 7.58994 17.0804 7.35533 17.6468C7.12072 18.2131 6.99998 18.82 7 19.433V20.9999H8.56683C9.17982 20.9999 9.7868 20.8791 10.3531 20.6445C10.9194 20.4099 11.434 20.066 11.8673 19.6325L25.0833 6.41652C25.5475 5.9524 25.8082 5.3229 25.8082 4.66652C25.8082 4.01015 25.5475 3.38065 25.0833 2.91652C24.6192 2.4524 23.9897 2.19165 23.3333 2.19165C22.677 2.19165 22.0475 2.4524 21.5833 2.91652L8.36733 16.1325Z" fill="white"/>
<path d="M28 5.77733C27.8013 6.64277 27.3649 7.43554 26.74 8.06633L13.517 21.2835C12.8684 21.9355 12.0969 22.4524 11.2472 22.8043C10.3975 23.1561 9.4865 23.3359 8.56683 23.3333H7C6.38116 23.3333 5.78767 23.0875 5.35008 22.6499C4.9125 22.2123 4.66667 21.6188 4.66667 21V19.4332C4.66411 18.5136 4.84408 17.6026 5.19615 16.7531C5.54822 15.9036 6.06538 15.1324 6.71767 14.4842L19.9337 1.267C20.5597 0.641129 21.348 0.202346 22.2098 0C22.1947 0 22.1818 0 22.1667 0H5.83333C4.28681 0.0018525 2.80415 0.617029 1.71059 1.71059C0.617029 2.80415 0.0018525 4.28681 0 5.83333L0 22.1667C0.0018525 23.7132 0.617029 25.1959 1.71059 26.2894C2.80415 27.383 4.28681 27.9981 5.83333 28H18.6667V22.1667C18.6667 21.2384 19.0354 20.3482 19.6918 19.6918C20.3482 19.0354 21.2384 18.6667 22.1667 18.6667H28V5.83333C28 5.81467 28 5.79717 28 5.77733Z" fill="white"/>
</g>
<defs>
<clipPath id="clip0_2037_826">
<rect width="28" height="28" fill="white"/>
</clipPath>
</defs>
</svg>
